<?xml version="1.0" encoding="UTF-8"?> <svg xmlns="http://www.w3.org/2000/svg" xmlns:xlink="http://www.w3.org/1999/xlink" width="115px" height="48px" viewBox="0 0 115 48" version="1.1"><title>84DACD47-0B5E-451C-99F0-A1627FEA7658</title><g id="Service" stroke="none" stroke-width="1" fill="none" fill-rule="evenodd"><g id="Digital-Infrastructure-xxl-≥1400px" transform="translate(-54.000000, -8609.000000)" fill-rule="nonzero"><g id="Footer/1400" transform="translate(-0.500000, 8499.000000)"><g id="Brillio_Secondary-Logo_12.2021" transform="translate(55.000000, 110.000000)"><path d="M11.6826446,37.1520661 C8.00826446,37.1520661 4.20826446,36.5867769 1.47603306,35.8958678 C0.188429752,35.6132231 1.78516522e-14,35.2677686 1.78516522e-14,34.5140496 L1.78516522e-14,0.94214876 C1.78516522e-14,0.408264463 0.47107438,-8.9258261e-15 1.00495868,-8.9258261e-15 L6.78347107,-8.9258261e-15 C7.31735537,-8.9258261e-15 7.75702479,0.439669421 7.75702479,0.94214876 L7.75702479,9.23305785 C9.13884298,9.0446281 10.7404959,8.88760331 11.6826446,8.88760331 C19.785124,8.88760331 23.7107438,13.6297521 23.7107438,21.1355372 L23.7107438,24.8727273 C23.6793388,32.6297521 19.4396694,37.1520661 11.6826446,37.1520661 M15.922314,21.1355372 C15.922314,17.7752066 15.0743802,15.2942149 11.6512397,15.2942149 C10.4892562,15.2942149 8.88760331,15.3884298 7.72561983,15.5454545 L7.72561983,30.4942149 C8.63636364,30.6512397 10.0809917,30.7768595 11.6512397,30.7768595 C15.0429752,30.7768595 15.922314,28.2958678 15.922314,24.9041322 L15.922314,21.1355372 Z" id="Shape" fill="#FFFFFF"></path><path d="M40.9834711,15.3256198 C39.2876033,15.4512397 36.2099174,16.0479339 34.4198347,16.9900826 L34.4198347,35.707438 C34.4198347,36.2413223 33.9801653,36.7123967 33.446281,36.7123967 L27.6677686,36.7123967 C27.1338843,36.7123967 26.6628099,36.2413223 26.6628099,35.707438 L26.6628099,12.8132231 C26.6628099,12.2793388 27.1338843,12.0909091 27.6049587,11.8710744 C30.6198347,10.4264463 35.8958678,8.91900826 40.7322314,8.91900826 C41.2661157,8.91900826 41.6743802,9.35867769 41.6743802,9.86115702 L41.6743802,14.414876 C41.6743802,14.8231405 41.3917355,15.2628099 40.9834711,15.3256198" id="Path" fill="#FFFFFF"></path><path d="M50.6876033,36.7123967 L44.846281,36.7123967 C44.3123967,36.7123967 43.8727273,36.2727273 43.8727273,35.7702479 L43.8727273,10.2694215 C43.8727273,9.73553719 44.3123967,9.32727273 44.846281,9.32727273 L50.6876033,9.32727273 C51.2214876,9.32727273 51.6297521,9.76694215 51.6297521,10.2694215 L51.6297521,35.7702479 C51.6297521,36.2727273 51.2214876,36.7123967 50.6876033,36.7123967" id="Path" fill="#FFFFFF"></path><path d="M62.4958678,36.7123967 L56.6545455,36.7123967 C56.1206612,36.7123967 55.6495868,36.2413223 55.6495868,35.707438 L55.6495868,0.94214876 C55.6495868,0.408264463 56.1206612,-8.9258261e-15 56.6545455,-8.9258261e-15 L62.4958678,-8.9258261e-15 C63.0297521,-8.9258261e-15 63.4066116,0.439669421 63.4066116,0.94214876 L63.4066116,35.707438 C63.4066116,36.2413223 63.0297521,36.7123967 62.4958678,36.7123967" id="Path" fill="#FFFFFF"></path><path d="M74.0842975,36.7123967 L68.2429752,36.7123967 C67.7090909,36.7123967 67.2380165,36.2413223 67.2380165,35.707438 L67.2380165,0.94214876 C67.2380165,0.408264463 67.7090909,-8.9258261e-15 68.2429752,-8.9258261e-15 L74.0842975,-8.9258261e-15 C74.6181818,-8.9258261e-15 74.9950413,0.439669421 74.9950413,0.94214876 L74.9950413,35.707438 C74.9950413,36.2413223 74.6181818,36.7123967 74.0842975,36.7123967" id="Path" fill="#FFFFFF"></path><path d="M85.8297521,36.7123967 L79.9884298,36.7123967 C79.4545455,36.7123967 79.046281,36.2727273 79.046281,35.7702479 L79.046281,10.2694215 C79.046281,9.73553719 79.4859504,9.32727273 79.9884298,9.32727273 L85.8297521,9.32727273 C86.3636364,9.32727273 86.8033058,9.76694215 86.8033058,10.2694215 L86.8033058,35.7702479 C86.7719008,36.2727273 86.3322314,36.7123967 85.8297521,36.7123967" id="Path" fill="#FFFFFF"></path><path d="M102.034711,37.1520661 C94.277686,37.1520661 90.0066116,32.3157025 90.0066116,24.7157025 L90.0066116,21.3553719 C90.0066116,13.7553719 94.277686,8.91900826 102.034711,8.91900826 C109.791736,8.91900826 114,13.7553719 114,21.3553719 L114,24.7157025 C114,32.3157025 109.791736,37.1520661 102.034711,37.1520661 M106.305785,21.3553719 C106.305785,17.492562 104.829752,15.5140496 102.034711,15.5140496 C99.2710744,15.5140496 97.7322314,17.461157 97.7322314,21.3553719 L97.7322314,24.7157025 C97.7322314,28.5785124 99.2710744,30.5884298 102.034711,30.5884298 C104.798347,30.5884298 106.305785,28.5785124 106.305785,24.7157025 L106.305785,21.3553719 Z" id="Shape" fill="#FFFFFF"></path><path d="M64.1603306,43.2446281 C64.1603306,40.7008264 62.0876033,38.6280992 59.5438017,38.6280992 C57,38.6280992 54.9272727,40.7008264 54.9272727,43.2446281 C54.9272727,45.7884298 57,47.861157 59.5438017,47.861157 C62.0876033,47.892562 64.1603306,45.8198347 64.1603306,43.2446281" id="Path" fill="#2CC84D"></path><path d="M75.7801653,43.2446281 C75.7801653,40.7008264 73.707438,38.6280992 71.1636364,38.6280992 C68.6198347,38.6280992 66.5471074,40.7008264 66.5471074,43.2446281 C66.5471074,45.7884298 68.6198347,47.861157 71.1636364,47.861157 C73.707438,47.892562 75.7801653,45.8198347 75.7801653,43.2446281" id="Path" fill="#2CC84D"></path></g></g></g></g></svg> 