<svg width="276" height="98" viewBox="0 0 276 98" fill="none" xmlns="http://www.w3.org/2000/svg">
<path d="M5.59057 88.374H1.73936V91.5124H5.90098C6.35626 91.5124 6.75255 91.3571 7.08883 91.0465C7.42512 90.7358 7.59377 90.3631 7.59377 89.9272C7.59377 89.5555 7.45409 89.2189 7.17472 88.9176C6.82291 88.5552 6.29417 88.374 5.59057 88.374ZM1.73936 96.967H0V86.8199H5.59057C6.88499 86.8199 7.8628 87.1771 8.52605 87.8915C9.06411 88.462 9.33313 89.1403 9.33313 89.9272C9.33313 90.6012 9.13136 91.1894 8.72782 91.6915C8.32325 92.1948 7.78002 92.5748 7.09711 92.8336L9.51938 96.967H7.51617L5.34223 93.0666H1.73936V96.967Z" fill="#00080F"/>
<path d="M19.0699 90.8914V92.4456H15.1721V95.4131H22.0364V96.9673H13.4327V86.8201H21.6639V88.3743H15.1721V90.8914H19.0699Z" fill="#00080F"/>
<path d="M33.2017 86.8201H34.9411V96.9673H33.4035L27.5491 89.9274H27.5335V96.9673H25.7942V86.8201H27.3318L33.1862 93.8589H33.2017V86.8201Z" fill="#00080F"/>
<path d="M43.7461 88.9023L41.9913 92.8339H45.5786L43.8393 88.9023H43.7461ZM38.3418 96.9673L43.0477 86.8201H44.6318L49.3367 96.9673H47.4266L46.2005 94.2327H41.3704L40.1588 96.9673H38.3418Z" fill="#00080F"/>
<path d="M59.5706 86.82H61.3099V93.3618C61.3099 94.5846 60.8909 95.5434 60.0517 96.2372C59.2136 96.9309 58.1313 97.2788 56.8058 97.2788C55.4917 97.2788 54.4146 96.9309 53.5765 96.2372C52.7373 95.5434 52.3183 94.5846 52.3183 93.3618V86.82H54.0576V93.3618C54.0576 94.098 54.3163 94.6747 54.8336 95.0951C55.352 95.5144 56.0091 95.7246 56.8058 95.7246C57.6139 95.7246 58.2761 95.5144 58.7945 95.0951C59.3119 94.6747 59.5706 94.098 59.5706 93.3618V86.82Z" fill="#00080F"/>
<path d="M65.8907 86.8201H67.63V95.4131H73.8569V96.9673H65.8907V86.8201Z" fill="#00080F"/>
<path d="M74.7268 88.3743V86.8201H84.4324V88.3743H80.457V96.9673H78.7177V88.3743H74.7268Z" fill="#00080F"/>
<path d="M98.8588 86.8201H100.598V96.9673H99.0605L93.2062 89.9274H93.1907V96.9673H91.4513V86.8201H92.9889L98.8433 93.8589H98.8588V86.8201Z" fill="#00080F"/>
<path d="M107.275 96.967H105.536V86.8199H107.275V96.967Z" fill="#00080F"/>
<path d="M120.444 87.9849L119.388 89.1974C119.046 88.8867 118.56 88.6124 117.929 88.3742C117.297 88.1361 116.557 88.0159 115.707 88.0159C115.045 88.0159 114.499 88.1361 114.069 88.3742C113.64 88.6124 113.425 88.9799 113.425 89.4769C113.425 90.7795 115.416 90.6014 117.428 90.8116C119.267 91.0042 121.143 91.6099 121.143 93.8744C121.143 95.0351 120.727 95.8924 119.893 96.4464C119.06 97.0003 117.986 97.2778 116.671 97.2778C114.549 97.2778 112.701 96.5686 111.127 95.149L112.183 93.9365C113.528 95.1594 115.035 95.7703 116.702 95.7703C117.498 95.7703 118.148 95.6315 118.651 95.3509C119.153 95.0713 119.403 94.6572 119.403 94.1084C119.403 93.5172 119.165 93.1113 118.689 92.8876C118.213 92.665 117.475 92.4869 116.469 92.43C114.021 92.2912 111.687 92.0282 111.687 89.6322C111.687 89.0628 111.808 88.5647 112.051 88.1412C112.294 87.7157 112.623 87.3895 113.037 87.1617C113.451 86.9339 113.883 86.7683 114.333 86.6637C114.784 86.5612 115.262 86.5084 115.771 86.5084C116.743 86.5084 117.643 86.6585 118.472 86.9588C119.3 87.2601 119.957 87.6018 120.444 87.9849Z" fill="#00080F"/>
<path d="M133.613 87.9849L132.557 89.1974C132.215 88.8867 131.729 88.6124 131.098 88.3742C130.466 88.1361 129.726 88.0159 128.876 88.0159C128.214 88.0159 127.668 88.1361 127.238 88.3742C126.809 88.6124 126.594 88.9799 126.594 89.4769C126.594 90.7795 128.584 90.6014 130.597 90.8116C132.436 91.0042 134.313 91.6099 134.313 93.8744C134.313 95.0351 133.896 95.8924 133.062 96.4464C132.229 97.0003 131.155 97.2778 129.84 97.2778C127.717 97.2778 125.869 96.5686 124.296 95.149L125.352 93.9365C126.697 95.1594 128.204 95.7703 129.871 95.7703C130.667 95.7703 131.317 95.6315 131.82 95.3509C132.322 95.0713 132.572 94.6572 132.572 94.1084C132.572 93.5172 132.334 93.1113 131.858 92.8876C131.382 92.665 130.644 92.4869 129.638 92.43C127.19 92.2912 124.855 92.0282 124.855 89.6322C124.855 89.0628 124.976 88.5647 125.22 88.1412C125.463 87.7157 125.792 87.3895 126.206 87.1617C126.62 86.9339 127.052 86.7683 127.502 86.6637C127.953 86.5612 128.431 86.5084 128.939 86.5084C129.912 86.5084 130.812 86.6585 131.641 86.9588C132.469 87.2601 133.126 87.6018 133.613 87.9849Z" fill="#00080F"/>
<path d="M210.39 87.9849L209.333 89.1974C208.992 88.8867 208.505 88.6124 207.874 88.3742C207.242 88.1361 206.502 88.0159 205.653 88.0159C204.99 88.0159 204.444 88.1361 204.015 88.3742C203.585 88.6124 203.37 88.9799 203.37 89.4769C203.37 90.7795 205.361 90.6014 207.373 90.8116C209.212 91.0042 211.088 91.6099 211.088 93.8744C211.088 95.0351 210.672 95.8924 209.838 96.4464C209.005 97.0003 207.931 97.2778 206.616 97.2778C204.494 97.2778 202.646 96.5686 201.072 95.149L202.128 93.9365C203.474 95.1594 204.98 95.7703 206.647 95.7703C207.444 95.7703 208.094 95.6315 208.596 95.3509C209.098 95.0713 209.349 94.6572 209.349 94.1084C209.349 93.5172 209.111 93.1113 208.635 92.8876C208.159 92.665 207.42 92.4869 206.414 92.43C203.966 92.2912 201.632 92.0282 201.632 89.6322C201.632 89.0628 201.753 88.5647 201.996 88.1412C202.239 87.7157 202.568 87.3895 202.982 87.1617C203.396 86.9339 203.828 86.7683 204.279 86.6637C204.73 86.5612 205.208 86.5084 205.716 86.5084C206.688 86.5084 207.589 86.6585 208.417 86.9588C209.245 87.2601 209.902 87.6018 210.39 87.9849Z" fill="#00080F"/>
<path d="M256.325 87.9849L255.269 89.1974C254.927 88.8867 254.441 88.6124 253.81 88.3742C253.177 88.1361 252.438 88.0159 251.588 88.0159C250.926 88.0159 250.38 88.1361 249.95 88.3742C249.521 88.6124 249.305 88.9799 249.305 89.4769C249.305 90.7795 251.296 90.6014 253.309 90.8116C255.147 91.0042 257.024 91.6099 257.024 93.8744C257.024 95.0351 256.607 95.8924 255.773 96.4464C254.941 97.0003 253.866 97.2778 252.551 97.2778C250.429 97.2778 248.581 96.5686 247.007 95.149L248.064 93.9365C249.409 95.1594 250.915 95.7703 252.582 95.7703C253.379 95.7703 254.029 95.6315 254.532 95.3509C255.034 95.0713 255.284 94.6572 255.284 94.1084C255.284 93.5172 255.046 93.1113 254.57 92.8876C254.094 92.665 253.355 92.4869 252.35 92.43C249.901 92.2912 247.567 92.0282 247.567 89.6322C247.567 89.0628 247.688 88.5647 247.931 88.1412C248.175 87.7157 248.504 87.3895 248.917 87.1617C249.331 86.9339 249.764 86.7683 250.214 86.6637C250.665 86.5612 251.143 86.5084 251.651 86.5084C252.624 86.5084 253.524 86.6585 254.353 86.9588C255.181 87.2601 255.838 87.6018 256.325 87.9849Z" fill="#00080F"/>
<path d="M141.952 88.9023L140.198 92.8339H143.785L142.046 88.9023H141.952ZM136.548 96.9673L141.254 86.8201H142.838L147.543 96.9673H145.633L144.407 94.2327H139.577L138.365 96.9673H136.548Z" fill="#00080F"/>
<path d="M158.507 86.8201H160.246V96.9673H158.708L152.854 89.9274H152.839V96.9673H151.099V86.8201H152.637L158.491 93.8589H158.507V86.8201Z" fill="#00080F"/>
<path d="M179.564 96.9673H177.825V90.0672H177.747L174.377 95.7548H174.098L170.728 90.0672H170.65V96.9673H168.988V86.8201H170.774L174.3 92.8028H174.331L177.856 86.8201H179.564V96.9673Z" fill="#00080F"/>
<path d="M186.086 96.967H184.347V86.8199H186.086V96.967Z" fill="#00080F"/>
<path d="M189.27 88.3743V86.8201H198.976V88.3743H195V96.9673H193.261V88.3743H189.27Z" fill="#00080F"/>
<path d="M221.912 86.82H223.652V93.3618C223.652 94.5846 223.233 95.5434 222.393 96.2372C221.555 96.9309 220.473 97.2788 219.148 97.2788C217.833 97.2788 216.756 96.9309 215.918 96.2372C215.079 95.5434 214.66 94.5846 214.66 93.3618V86.82H216.399V93.3618C216.399 94.098 216.658 94.6747 217.175 95.0951C217.694 95.5144 218.351 95.7246 219.148 95.7246C219.956 95.7246 220.618 95.5144 221.136 95.0951C221.654 94.6747 221.912 94.098 221.912 93.3618V86.82Z" fill="#00080F"/>
<path d="M234.553 92.4143H229.972V95.4139H234.553C235.08 95.4139 235.5 95.2586 235.811 94.9469C236.09 94.6674 236.23 94.3257 236.23 93.9219C236.23 93.5698 236.096 93.2488 235.827 92.9589C235.484 92.5955 235.06 92.4143 234.553 92.4143ZM234.18 88.374H229.972V91.0154H234.18C234.646 91.0154 235.003 90.8912 235.251 90.6427C235.532 90.3631 235.671 90.0266 235.671 89.6321C235.671 89.2914 235.552 89.0005 235.313 88.7623C235.055 88.5035 234.677 88.374 234.18 88.374ZM234.491 96.967H228.233V86.8199H234.367C235.401 86.8199 236.215 87.115 236.804 87.7062C237.26 88.1618 237.488 88.695 237.488 89.3059C237.488 89.7625 237.366 90.184 237.123 90.5722C236.88 90.9616 236.571 91.2287 236.199 91.3737C236.778 91.5072 237.232 91.8117 237.558 92.2828C237.884 92.7539 238.047 93.3058 238.047 93.9374C238.047 94.7864 237.737 95.5061 237.115 96.0973C236.494 96.6771 235.619 96.967 234.491 96.967Z" fill="#00080F"/>
<path d="M243.622 96.967H241.882V86.8199H243.622V96.967Z" fill="#00080F"/>
<path d="M262.536 96.9673H260.797V86.8201H262.536V90.6574H268.049V86.8201H269.789V96.9673H268.049V92.2116H262.536V96.9673Z" fill="#00080F"/>
<path d="M276 96.967H274.261V86.8199H276V96.967Z" fill="#00080F"/>
<path d="M198.545 59.7027C165.251 33.582 127.625 39.2034 127.625 39.2034C126.688 40.6737 125.834 41.8717 125.834 41.8717C165.676 37.3272 190.92 57.2539 197.065 61.6773C197.618 62.0749 198.383 61.9755 198.791 61.4298C199.2 60.8852 199.09 60.1117 198.545 59.7027Z" fill="#F46D20"/>
<path d="M124.482 39.4951C111.43 40.8298 92.0409 46.6365 75.5321 59.6984C75.8208 59.4882 76.186 59.4001 76.5637 59.4923C76.5637 59.4923 77.8281 59.8412 79.1215 60.1001C86.4369 54.9064 100.427 45.6114 122.478 42.2628C122.478 42.2628 123.555 40.8753 124.482 39.4951Z" fill="#F46D20"/>
<path d="M149.655 39.5332C142.639 29.3177 138.269 16.0746 138.269 1.23073C138.269 7.54786 137.482 12.3729 137.041 14.8134C139.726 29.6697 146.502 39.1781 146.502 39.1781C147.861 39.3096 149.655 39.5332 149.655 39.5332Z" fill="#F9A511"/>
<path d="M138.268 1.23116V1.23013C138.267 0.550888 137.717 3.8147e-05 137.037 3.8147e-05C136.357 3.8147e-05 135.807 0.550884 135.807 1.23116V1.2322C135.806 38.4982 107.802 67.9136 76.5633 59.4925C75.9032 59.3279 75.2337 59.7307 75.0692 60.3913C74.9047 61.0529 75.3072 61.7228 75.9673 61.8874C109.144 70.6358 138.267 39.8588 138.268 1.23116Z" fill="#ED1B29"/>
<path d="M151.621 42.229C162.99 56.5593 178.531 63.3496 194.706 59.9627C195.134 60.2578 196.475 61.2487 197.063 61.6743C197.063 61.6743 197.497 62.0294 198.096 61.8845C177.18 67.2666 159.519 57.3783 148.273 41.7972C148.273 41.7972 149.907 41.9743 151.621 42.229Z" fill="#F9A511"/>
</svg>
