<svg xmlns="http://www.w3.org/2000/svg" width="78" height="19" fill="none"><g fill-rule="evenodd" clip-path="url(#a)" clip-rule="evenodd"><path fill="#DFDEE3" d="m1.008 12.432 5.193 5.082L17.797 6.165l-5.192-5.081L1.008 12.432z"/><path fill="#FF8F08" d="M7.358 3.628c0 1.988-1.647 3.6-3.68 3.6C1.648 7.228 0 5.616 0 3.628 0 1.638 1.647.026 3.679.026s3.68 1.612 3.68 3.602"/><path fill="#7966FF" d="M18.888 3.628c0 1.988-1.648 3.6-3.68 3.6-2.031 0-3.678-1.612-3.678-3.6 0-1.99 1.647-3.602 3.679-3.602 2.031 0 3.68 1.612 3.68 3.602z"/><path fill="#1AF4FF" d="M7.358 14.922c0 1.989-1.647 3.601-3.68 3.601-2.03 0-3.678-1.612-3.678-3.602 0-1.988 1.647-3.6 3.679-3.6s3.68 1.612 3.68 3.601"/><path fill="#FFD817" d="M15.209 18.523c-2.032 0-3.68-1.611-3.68-3.6 0-1.99 1.648-3.602 3.68-3.602 2.031 0 3.68 1.612 3.68 3.601 0 1.989-1.649 3.601-3.68 3.601z"/><path fill="#000" d="M52.312 15.27c1.683 0 2.957-1.414 2.957-3.459 0-2.069-1.275-3.458-2.957-3.458-1.681 0-2.982 1.415-2.982 3.458 0 2.07 1.276 3.458 2.982 3.458zm-7.162-3.46c0-3.66 2.6-6.89 7.162-6.89 4.538 0 7.163 3.23 7.163 6.89 0 3.635-2.6 6.865-7.163 6.865-4.562 0-7.162-3.23-7.162-6.865zM61.436 0h4.078v13.705c0 .984.458 1.514 1.325 1.514.464-.01.918-.131 1.325-.354l.562 3.029c-1.045.454-2.498.757-3.62.757-2.319 0-3.67-1.262-3.67-3.534V0zm8.538 0h4.078v13.705c0 .984.459 1.514 1.325 1.514.409 0 .918-.126 1.325-.354l.561 3.029c-1.045.454-2.497.757-3.619.757-2.32 0-3.67-1.262-3.67-3.534V0zM33.733 9.035V4.138h3.695c.944 0 1.938.96 1.938 2.423 0 1.44-.817 2.474-1.81 2.474h-2.28l4.543 9.389h4.824l-3.977-6.663c1.81-.985 2.957-3.004 2.957-5.2 0-2.978-2.498-6.057-5.914-6.057h-8.157v17.92h4.181v-9.39z"/></g><defs><clipPath id="a"><path fill="#fff" d="M0 0h77.263v18.676H0z"/></clipPath></defs></svg>