<svg width="105" height="32" viewBox="0 0 105 32" fill="none" xmlns="http://www.w3.org/2000/svg">
<path d="M17.6814 6.1578C17.0846 4.93023 16.2764 3.92145 15.5056 3.21651C14.6103 2.42649 12.8634 1.24146 9.79231 1.24146C4.47077 1.24146 1.48671 5.01532 1.48671 8.96542C1.48671 13.3531 4.93702 15.3767 7.28075 16.3855L10.0099 17.5705C11.8874 18.3606 14.1006 19.5882 14.1006 22.572C14.1006 25.5558 12.0553 27.4883 9.4131 27.4883C7.70972 27.4883 6.51609 26.7834 5.70791 25.7321C5.02406 24.8084 4.51428 23.447 4.51428 22.0007L0.206055 22.967C0.373908 24.9846 1.05775 26.9171 2.5933 28.6734C4.04181 30.3385 6.00009 31.6146 9.28253 31.6146C14.6103 31.6146 18.4461 27.7982 18.4461 22.2195C18.4461 18.8832 16.9976 15.8082 11.7568 13.6144L8.90332 12.4294C6.13065 11.2868 5.83225 9.74937 5.83225 8.87425C5.83225 6.98425 7.19372 5.36171 9.83586 5.36171C11.073 5.36171 12.0117 5.67164 12.907 6.41304C13.5472 6.98425 13.9327 7.59808 14.1876 8.2544L17.6814 6.14565V6.1578Z" fill="#201579"/>
<path d="M22.3315 4.99163V31.044H26.5092V23.9339L27.2739 23.1438L33.155 31.044H38.4392L30.1709 20.2451L37.886 12.5636H32.3467L26.5092 18.7562V2.45142L22.3315 4.99163Z" fill="#201579"/>
<path d="M53.4213 14.7146C51.7179 12.4297 49.4177 12.0833 48.0935 12.0833C43.3625 12.0833 39.3589 15.7721 39.3589 21.7823C39.3589 26.8748 42.5108 31.615 48.0562 31.615C49.3368 31.615 51.5935 31.3051 53.4275 29.1112V31.0437H57.6052V12.5633H53.4275V14.7146H53.4213ZM48.6032 15.9422C51.2454 15.9422 53.6762 17.8747 53.6762 21.9099C53.6762 25.9451 51.2454 27.75 48.6032 27.75C45.5757 27.75 43.6174 25.07 43.6174 21.8673C43.6174 18.6648 45.5757 15.9422 48.6032 15.9422Z" fill="#201579"/>
<path d="M61.9631 31.0439H66.1408V22.1775C66.1408 16.2098 68.0555 15.9424 69.933 15.9424C71.5121 15.9424 73.2152 16.076 73.2152 20.7737V31.0439H77.3934V19.7162C77.3934 16.8661 76.9703 15.5899 76.2866 14.5811C75.7336 13.7911 74.3285 12.0774 71.0023 12.0774C69.9766 12.0774 67.9312 12.2111 66.1408 14.2712V12.5575H61.9631V31.0378V31.0439Z" fill="#201579"/>
<path fill-rule="evenodd" clip-rule="evenodd" d="M92.0214 -0.642334L98.5613 16.4282H94.5826L90.2556 4.45025L85.8109 16.4282H81.8323L88.521 -0.642334H92.0214Z" fill="#201579"/>
<path d="M100.563 -0.642334H104.393V16.4282H100.563V-0.642334Z" fill="#201579"/>
</svg>
